<svg width="94" height="50" viewBox="0 0 94 50" fill="none" xmlns="http://www.w3.org/2000/svg">
<path d="M63.661 23.858C63.3475 23.805 63.2847 23.723 63.3475 23.4143C63.4881 22.7871 63.5817 22.1503 63.6272 21.5092C63.6899 19.8307 62.6046 18.9722 60.9598 19.3484C59.315 19.7246 58.1767 20.7181 57.1396 21.9336C56.1404 23.1421 55.3156 24.4848 54.6893 25.9224C54.6169 26.0767 54.6025 26.4047 54.3516 26.3034C54.1008 26.2021 54.2359 25.932 54.2696 25.7439C54.3565 25.2616 54.4674 24.8227 54.5735 24.3693C54.8774 23.0526 55.2006 21.7407 55.4803 20.4191C55.6299 19.7342 55.4369 19.3918 54.8485 19.3146C53.44 19.1265 51.8772 19.4593 51.3611 21.2776C50.7136 23.5018 50.3267 25.7938 50.2083 28.1073C50.2083 28.3822 50.2565 28.6764 50.0443 28.9079C49.4139 29.6967 48.6806 30.3975 47.864 30.9915C47.6928 31.1401 47.4817 31.2348 47.2569 31.264C47.0321 31.2932 46.8037 31.2554 46.6003 31.1555C46.4184 31.035 46.2772 30.8622 46.1954 30.6598C46.1136 30.4575 46.095 30.2352 46.1421 30.0221C46.2289 29.1057 46.3205 28.1844 46.4604 27.2728C46.7257 25.4931 47.1743 23.7423 47.3721 21.9674C47.483 20.94 47.0971 20.4673 46.0745 20.4143C45.666 20.3901 45.2563 20.3998 44.8494 20.4432C44.4876 20.4915 44.2513 20.4818 44.1596 20.0333C44.1126 19.7865 43.9742 19.5665 43.7722 19.4172C43.5701 19.2679 43.3192 19.2003 43.0695 19.2278C42.3829 19.1939 41.6956 19.2804 41.0388 19.4834C36.9437 20.8821 34.8599 23.9545 34.1943 28.0397C34.0206 29.096 33.7119 29.7857 32.7858 30.2391C32.7472 30.2391 32.7183 30.2922 32.6797 30.3115C31.0928 31.2423 29.4528 31.9369 27.5523 31.4931C27.154 31.4211 26.7773 31.2594 26.4505 31.0205C26.1238 30.7815 25.8557 30.4715 25.6663 30.1137C27.1504 29.7784 28.5783 29.231 29.9062 28.4883C30.6751 28.0745 31.337 27.4873 31.8393 26.7731C32.3417 26.059 32.6707 25.2376 32.8003 24.3741C33.2103 21.6056 31.7198 19.5509 29.0862 19.305C27.7721 19.1651 26.4476 19.4472 25.3046 20.1104C22.2561 21.9095 21.031 24.7166 21.1226 28.1217C21.1632 28.5492 21.089 28.9798 20.9075 29.369C20.7261 29.7582 20.444 30.0919 20.0904 30.3356C19.7564 30.6045 19.3961 30.8389 19.0147 31.0349C18.4066 31.296 17.7324 31.3618 17.0853 31.223C16.767 31.1652 16.6802 31.0446 16.8876 30.7407C17.2779 30.1788 17.6016 29.5734 17.8523 28.9369C18.7687 26.6893 19.1594 24.3934 18.3105 22.0397C17.2686 19.1458 14.1092 18.2921 11.712 20.2165C11.2296 20.6024 10.8003 21.051 10.3035 21.5092C10.2056 21.1976 10.1727 20.8693 10.207 20.5445C10.1733 19.3628 9.80187 19.0156 8.62011 19.0686C8.45129 19.0686 8.27764 19.0686 8.10882 19.1169C6.70519 19.3387 6.05401 20.1152 6.07331 21.5284C6.09743 23.2889 6.07331 25.0494 6.15531 26.805C6.17217 27.5525 5.9656 28.2881 5.56202 28.9176C3.30945 32.7761 1.40899 36.8131 0.463585 41.2263C0.0391173 43.2086 -0.221348 45.2103 0.256178 47.2215C0.738527 49.3244 2.37369 50.3566 4.38509 49.8887C5.28885 49.6605 6.08412 49.1229 6.63284 48.3694C7.5183 47.1239 8.15386 45.7186 8.50435 44.2312C9.2921 41.4195 9.7772 38.5317 9.95139 35.617C9.98516 35.1346 10.1202 34.9224 10.646 34.8935C11.6721 34.7993 12.6626 34.4691 13.5401 33.9288C13.8054 33.7745 13.979 33.7118 14.2491 33.9723C14.605 34.2998 15.0223 34.5536 15.4768 34.7192C15.9313 34.8848 16.414 34.9587 16.8972 34.9369C18.9424 34.9369 20.5583 34.0012 21.9908 32.6555C22.2513 32.4095 22.3912 32.3179 22.6709 32.6555C23.5991 33.7461 24.8815 34.4752 26.2934 34.715C27.6619 35.0101 29.0773 35.0132 30.4471 34.7239C31.8168 34.4347 33.1102 33.8597 34.2425 33.0366C34.5946 32.7954 34.7779 32.7279 35.0914 33.1523C35.4479 33.6446 35.9037 34.0565 36.4294 34.3614C36.9551 34.6664 37.539 34.8575 38.1433 34.9226C38.7475 34.9876 39.3587 34.925 39.9373 34.7388C40.5158 34.5527 41.0489 34.2472 41.5019 33.842C42.0332 33.3476 42.5176 32.8051 42.9489 32.2214L43.2287 32.7809C44.3188 34.8742 46.2241 35.4819 48.3126 34.387C48.6896 34.1818 49.0494 33.9463 49.3883 33.6829C49.75 33.4224 50.0828 33.1282 50.4639 32.8243C50.5459 33.0751 50.6038 33.2777 50.6713 33.4755C51.0041 34.4401 51.6071 34.9224 52.4946 34.9224C53.5606 34.9224 54.1056 34.5703 54.4819 33.543C54.6362 33.1197 54.7666 32.6882 54.8726 32.2504C55.2729 30.5585 55.8685 28.9188 56.6476 27.3645C57.0881 26.3365 57.718 25.4006 58.5047 24.6056C58.6831 24.4465 58.8761 24.2777 59.1365 24.3789C59.397 24.4802 59.4115 24.7793 59.397 25.0397C59.3633 25.7246 59.2764 26.4143 59.2957 27.0944C59.344 28.8163 60.6945 29.7906 62.349 29.2986C63.8346 28.8549 64.6787 27.7214 65.1948 26.3516C65.6675 25.0928 65.0212 24.0703 63.661 23.858ZM6.5846 37.4691C6.45527 39.7826 6.17328 42.085 5.74049 44.3614C5.62098 44.994 5.41993 45.6084 5.14237 46.1894C5.01696 46.4402 4.85779 46.6958 4.52979 46.6717C4.20179 46.6476 4.04744 46.363 3.92686 46.0833C3.6818 45.3242 3.61251 44.5193 3.72426 43.7295C4.06673 40.1218 5.24366 36.7504 6.65695 33.4465C6.65695 33.4465 6.69071 33.4465 6.77753 33.4176C6.71483 34.7922 6.67624 36.133 6.5846 37.4691ZM12.5513 30.9144C12.0936 31.3177 11.5381 31.5938 10.9402 31.715C10.9402 29.5687 10.9402 27.4947 10.9402 25.4159C10.9333 25.2456 10.9788 25.0773 11.0704 24.9336C11.5389 24.1892 12.1292 23.5289 12.8165 22.9802C13.9308 22.1699 15.1463 22.6474 15.2283 24.0124C15.3764 25.2937 15.21 26.5919 14.7436 27.7945C14.2771 28.9971 13.5246 30.0679 12.5513 30.9144ZM26.8577 23.6796C27.1159 23.2558 27.4958 22.9197 27.9478 22.715C28.1949 22.5804 28.4744 22.5169 28.7553 22.5313C29.0362 22.5458 29.3077 22.6377 29.5396 22.7969C29.7556 22.9785 29.9156 23.2177 30.001 23.4867C30.0864 23.7556 30.0936 24.0433 30.022 24.3162C29.9506 24.7082 29.8 25.0815 29.5794 25.4132C29.3588 25.7449 29.0728 26.0281 28.7389 26.2455C27.8652 26.8472 26.8819 27.2716 25.8448 27.4947C25.7747 26.1498 26.1291 24.817 26.8577 23.6844V23.6796ZM44.0101 22.715C43.5615 24.8516 43.1418 26.9979 42.6643 29.1298C42.4961 29.8915 42.1008 30.5843 41.5308 31.1169C41.3323 31.3313 41.0746 31.482 40.7904 31.5498C40.5061 31.6177 40.2082 31.5996 39.9342 31.498C39.6743 31.4163 39.4461 31.256 39.281 31.0391C39.116 30.8223 39.0224 30.5596 39.0129 30.2873C38.7911 27.3934 39.5966 24.8613 41.9842 23.0092C42.4982 22.6411 43.1008 22.4164 43.7303 22.358C44.0342 22.2712 44.0631 22.4304 44.0342 22.7005L44.0101 22.715Z" fill="white"/>
<path d="M82.29 11.7998C81.2908 11.7636 80.3094 11.5252 79.4049 11.0991C78.5005 10.673 77.6917 10.068 77.0276 9.32071C76.3655 8.61608 75.5688 8.05131 74.6847 7.65977C73.8006 7.26823 72.847 7.05788 71.8802 7.04113C70.9134 7.02437 69.953 7.20156 69.0559 7.56223C68.1587 7.9229 67.343 8.45973 66.6568 9.14099C65.9707 9.82226 65.4281 10.6341 65.061 11.5286C64.694 12.4232 64.51 13.3822 64.5199 14.349C64.5298 15.3158 64.7335 16.2709 65.1188 17.1577C65.5041 18.0445 66.0632 18.845 66.7632 19.5121C67.5119 20.1588 68.1222 20.9502 68.5574 21.8387C68.9926 22.7272 69.2436 23.6946 69.2955 24.6825C69.4864 27.7837 70.8671 30.6914 73.1497 32.7995C75.4322 34.9076 78.4405 36.0533 81.5472 35.9977C82.6751 36.014 83.7985 35.8512 84.8754 35.5154C87.6257 34.6993 89.9959 32.9313 91.5618 30.5277C93.1278 28.1241 93.7874 25.2417 93.4226 22.3964C92.7522 16.6954 87.9287 12.1085 82.29 11.7998ZM85.8642 30.3691C84.5478 31.2817 82.9801 31.7621 81.3784 31.7437C79.3681 31.7462 77.4338 30.9753 75.9764 29.5907C74.519 28.2061 73.6502 26.314 73.5498 24.3063C73.3535 21.2498 71.9685 18.3915 69.691 16.3433C69.3872 16.0804 69.1401 15.7583 68.9649 15.3968C68.7897 15.0353 68.69 14.6418 68.6719 14.2405C68.6538 13.8391 68.7177 13.4383 68.8597 13.0624C69.0017 12.6866 69.2189 12.3437 69.4978 12.0545C69.7768 11.7654 70.1118 11.5362 70.4823 11.3808C70.8528 11.2254 71.2511 11.1472 71.6529 11.1509C72.0547 11.1546 72.4515 11.2401 72.8191 11.4023C73.1867 11.5645 73.5174 11.7998 73.791 12.094C74.8297 13.26 76.0891 14.2086 77.4966 14.885C78.904 15.5613 80.4316 15.9521 81.991 16.0346C83.6149 16.1531 85.162 16.7729 86.4186 17.8084C87.6751 18.8438 88.5792 20.2439 89.0059 21.8151C89.4327 23.3864 89.361 25.0514 88.8008 26.5802C88.2406 28.109 87.2196 29.4261 85.8787 30.3498L85.8642 30.3691Z" fill="#5EBA98"/>
<path d="M56.76 8.04837C58.1185 9.17521 59.8493 9.75327 61.6124 9.66895C63.0732 9.60418 64.4655 9.03094 65.5484 8.04837C65.8571 7.78792 65.8426 7.6384 65.5484 7.35383C63.3247 5.17858 58.9305 5.19786 56.7214 7.39241C56.4368 7.67698 56.4899 7.82651 56.76 8.04837Z" fill="#5EBA98"/>
<path d="M67.1873 6.46099C67.9128 5.59028 68.3162 4.49617 68.3293 3.3629C68.3425 2.22963 67.9647 1.12643 67.2597 0.239089C67.0088 -0.055125 66.8207 -0.103357 66.5603 0.239089C65.8348 1.11129 65.4401 2.21125 65.4454 3.34566C65.4507 4.48006 65.8557 5.5763 66.5892 6.44169C66.7918 6.65873 66.9317 6.72144 67.1873 6.46099Z" fill="#5EBA98"/>
</svg>
