<svg width="75" height="41" viewBox="0 0 75 41" fill="none" xmlns="http://www.w3.org/2000/svg">
<path d="M51.054 19.9545C50.8026 19.9119 50.7523 19.8462 50.8026 19.5986C50.9154 19.0956 50.9904 18.5849 51.027 18.0707C51.0772 16.7247 50.2069 16.0361 48.8878 16.3378C47.5687 16.6396 46.6558 17.4364 45.8241 18.4111C45.0228 19.3803 44.3613 20.4571 43.859 21.61C43.801 21.7338 43.7894 21.9968 43.5883 21.9156C43.3871 21.8343 43.4954 21.6177 43.5225 21.4669C43.5921 21.0801 43.6811 20.7281 43.7662 20.3645C44.0099 19.3085 44.2691 18.2564 44.4934 17.1966C44.6134 16.6473 44.4586 16.3727 43.9867 16.3108C42.8572 16.1599 41.6038 16.4268 41.1899 17.8851C40.6706 19.6688 40.3604 21.5068 40.2654 23.3622C40.2654 23.5827 40.3041 23.8186 40.1339 24.0043C39.6283 24.6369 39.0403 25.1989 38.3854 25.6753C38.2481 25.7944 38.0788 25.8704 37.8985 25.8938C37.7182 25.9172 37.5351 25.8869 37.3719 25.8068C37.226 25.7101 37.1128 25.5715 37.0472 25.4093C36.9816 25.247 36.9667 25.0687 37.0044 24.8978C37.0741 24.1629 37.1476 23.4241 37.2597 22.693C37.4725 21.2657 37.8323 19.8616 37.9909 18.4382C38.0798 17.6143 37.7704 17.2352 36.9503 17.1927C36.6227 17.1733 36.294 17.1811 35.9677 17.2159C35.6776 17.2546 35.4881 17.2468 35.4146 16.8871C35.3769 16.6892 35.2659 16.5128 35.1039 16.3931C34.9418 16.2733 34.7406 16.2191 34.5403 16.2411C33.9897 16.214 33.4385 16.2834 32.9118 16.4462C29.6276 17.5679 27.9565 20.0318 27.4227 23.308C27.2834 24.1551 27.0359 24.7083 26.2932 25.0719C26.2622 25.0719 26.239 25.1144 26.208 25.1299C24.9354 25.8764 23.6202 26.4334 22.0961 26.0776C21.7766 26.0198 21.4745 25.8901 21.2125 25.6985C20.9505 25.5069 20.7354 25.2582 20.5836 24.9713C21.7737 24.7024 22.9189 24.2634 23.9838 23.6678C24.6004 23.3359 25.1312 22.865 25.5341 22.2922C25.937 21.7195 26.2008 21.0608 26.3048 20.3683C26.6336 18.1481 25.4383 16.5003 23.3262 16.303C22.2723 16.1909 21.2101 16.4171 20.2934 16.949C17.8487 18.3918 16.8661 20.643 16.9396 23.3738C16.9722 23.7166 16.9127 24.0619 16.7672 24.3741C16.6216 24.6862 16.3954 24.9538 16.1118 25.1492C15.844 25.3649 15.555 25.5528 15.2492 25.7101C14.7615 25.9195 14.2208 25.9722 13.7019 25.8609C13.4466 25.8145 13.377 25.7178 13.5433 25.4741C13.8563 25.0235 14.1159 24.538 14.3169 24.0275C15.0519 22.225 15.3653 20.3838 14.6844 18.4962C13.8489 16.1754 11.3152 15.4907 9.39262 17.0341C9.00579 17.3435 8.66152 17.7033 8.26308 18.0707C8.18455 17.8209 8.15821 17.5576 8.18571 17.2971C8.15864 16.3495 7.86078 16.071 6.91305 16.1135C6.77766 16.1135 6.6384 16.1135 6.50301 16.1522C5.37734 16.3301 4.85512 16.9529 4.8706 18.0862C4.88994 19.498 4.8706 20.9099 4.93636 22.3178C4.94988 22.9173 4.78422 23.5072 4.46056 24.012C2.65407 27.1065 1.12996 30.344 0.37178 33.8832C0.0313708 35.473 -0.177514 37.0782 0.205446 38.6912C0.592275 40.3777 1.90362 41.2054 3.5167 40.8302C4.24148 40.6472 4.87927 40.2161 5.31932 39.6118C6.02943 38.613 6.53913 37.4859 6.82021 36.293C7.45197 34.0382 7.841 31.7223 7.98069 29.3847C8.00777 28.9979 8.11609 28.8277 8.53773 28.8045C9.36067 28.729 10.155 28.4642 10.8587 28.0309C11.0715 27.9071 11.2107 27.8569 11.4273 28.0657C11.7128 28.3284 12.0474 28.532 12.4119 28.6648C12.7763 28.7975 13.1635 28.8569 13.551 28.8393C15.1912 28.8393 16.4871 28.0889 17.6359 27.0098C17.8448 26.8125 17.957 26.739 18.1814 27.0098C18.9257 27.8844 19.9541 28.4691 21.0864 28.6614C22.1839 28.8981 23.319 28.9005 24.4176 28.6686C25.5161 28.4366 26.5533 27.9755 27.4614 27.3153C27.7438 27.1219 27.8908 27.0678 28.1422 27.4082C28.428 27.8029 28.7936 28.1333 29.2152 28.3778C29.6368 28.6224 30.1051 28.7757 30.5897 28.8278C31.0743 28.88 31.5644 28.8298 32.0284 28.6805C32.4924 28.5312 32.9199 28.2862 33.2831 27.9613C33.7092 27.5648 34.0977 27.1297 34.4436 26.6616L34.668 27.1103C35.5422 28.7891 37.0702 29.2764 38.7452 28.3984C39.0475 28.2338 39.336 28.0449 39.6078 27.8336C39.8979 27.6248 40.1648 27.3888 40.4704 27.1451C40.5362 27.3463 40.5826 27.5087 40.6368 27.6673C40.9037 28.4409 41.3872 28.8277 42.099 28.8277C42.9539 28.8277 43.391 28.5454 43.6927 27.7215C43.8164 27.382 43.921 27.036 44.006 26.6848C44.3271 25.328 44.8048 24.013 45.4296 22.7665C45.7828 21.9421 46.288 21.1916 46.9188 20.554C47.062 20.4264 47.2167 20.291 47.4256 20.3722C47.6345 20.4534 47.6461 20.6933 47.6345 20.9021C47.6074 21.4514 47.5378 22.0045 47.5533 22.5499C47.5919 23.9308 48.675 24.7121 50.0019 24.3176C51.1933 23.9617 51.8702 23.0528 52.2842 21.9542C52.6632 20.9447 52.1449 20.1247 51.054 19.9545ZM5.28063 30.8701C5.17691 32.7254 4.95077 34.5719 4.60368 36.3975C4.50784 36.9048 4.3466 37.3976 4.12401 37.8635C4.02344 38.0646 3.89579 38.2696 3.63275 38.2503C3.3697 38.2309 3.24592 38.0027 3.14921 37.7784C2.95268 37.1696 2.89712 36.5241 2.98674 35.8908C3.26139 32.9975 4.20525 30.2937 5.33866 27.6441C5.33866 27.6441 5.36573 27.6441 5.43536 27.6209C5.38508 28.7233 5.35413 29.7986 5.28063 30.8701ZM10.0657 25.6134C9.69871 25.9369 9.25317 26.1583 8.77369 26.2555C8.77369 24.5342 8.77369 22.871 8.77369 21.2038C8.76818 21.0673 8.80464 20.9323 8.87814 20.817C9.25382 20.2201 9.72719 19.6905 10.2785 19.2505C11.172 18.6006 12.1468 18.9836 12.2126 20.0782C12.3314 21.1058 12.1979 22.1469 11.8239 23.1114C11.4498 24.0758 10.8463 24.9346 10.0657 25.6134ZM21.539 19.8113C21.7461 19.4715 22.0507 19.2019 22.4133 19.0377C22.6114 18.9298 22.8355 18.8789 23.0608 18.8905C23.2861 18.9021 23.5038 18.9758 23.6898 19.1035C23.863 19.2491 23.9913 19.441 24.0598 19.6567C24.1283 19.8723 24.1341 20.103 24.0766 20.3219C24.0194 20.6362 23.8987 20.9356 23.7217 21.2016C23.5448 21.4677 23.3154 21.6948 23.0477 21.8691C22.347 22.3517 21.5584 22.6921 20.7267 22.871C20.6705 21.7924 20.9547 20.7235 21.539 19.8152V19.8113ZM35.2947 19.0377C34.9349 20.7513 34.5984 22.4725 34.2154 24.1822C34.0805 24.7931 33.7635 25.3487 33.3064 25.7758C33.1472 25.9478 32.9405 26.0686 32.7125 26.123C32.4846 26.1774 32.2457 26.1629 32.026 26.0814C31.8175 26.0159 31.6345 25.8874 31.5021 25.7135C31.3698 25.5396 31.2947 25.3289 31.2871 25.1105C31.1092 22.7897 31.7552 20.759 33.67 19.2737C34.0822 18.9785 34.5655 18.7983 35.0703 18.7515C35.314 18.6819 35.3372 18.8095 35.314 19.0261L35.2947 19.0377Z" fill="#023D37"/>
<path d="M65.9935 10.285C65.1922 10.2559 64.4051 10.0647 63.6798 9.723C62.9544 9.38128 62.3059 8.89612 61.7732 8.2968C61.2422 7.73171 60.6033 7.27878 59.8943 6.96478C59.1853 6.65078 58.4205 6.48208 57.6452 6.46864C56.8698 6.45521 56.0997 6.59731 55.3802 6.88655C54.6607 7.1758 54.0065 7.60632 53.4562 8.15267C52.906 8.69902 52.4708 9.35012 52.1764 10.0675C51.8821 10.7849 51.7345 11.554 51.7425 12.3293C51.7504 13.1047 51.9137 13.8706 52.2227 14.5818C52.5317 15.293 52.9802 15.935 53.5415 16.47C54.142 16.9886 54.6314 17.6233 54.9804 18.3358C55.3294 19.0484 55.5308 19.8242 55.5724 20.6165C55.7255 23.1035 56.8327 25.4354 58.6633 27.126C60.4938 28.8167 62.9063 29.7355 65.3978 29.6909C66.3024 29.7039 67.2033 29.5734 68.0669 29.3041C70.2726 28.6496 72.1734 27.2317 73.4292 25.3041C74.6851 23.3765 75.2141 21.0649 74.9215 18.783C74.3839 14.211 70.5156 10.5325 65.9935 10.285ZM68.8599 25.1769C67.8042 25.9088 66.547 26.2941 65.2624 26.2793C63.6502 26.2813 62.099 25.6631 60.9303 24.5527C59.7615 23.4423 59.0647 21.9249 58.9842 20.3148C58.8268 17.8635 57.716 15.5713 55.8896 13.9287C55.6459 13.7178 55.4478 13.4596 55.3072 13.1696C55.1667 12.8797 55.0868 12.5641 55.0723 12.2423C55.0578 11.9204 55.109 11.599 55.2229 11.2975C55.3368 10.9961 55.5109 10.7211 55.7346 10.4892C55.9584 10.2574 56.227 10.0735 56.5241 9.94892C56.8213 9.82432 57.1407 9.76159 57.4629 9.76456C57.7851 9.76753 58.1034 9.83612 58.3982 9.96617C58.693 10.0962 58.9582 10.285 59.1776 10.5209C60.0106 11.456 61.0206 12.2167 62.1493 12.7592C63.2781 13.3016 64.5031 13.6149 65.7537 13.6811C67.0561 13.7762 68.2968 14.2732 69.3045 15.1036C70.3122 15.934 71.0373 17.0568 71.3795 18.3169C71.7217 19.577 71.6642 20.9123 71.215 22.1383C70.7657 23.3644 69.9469 24.4207 68.8715 25.1614L68.8599 25.1769Z" fill="#0FBC99"/>
<path d="M45.5194 7.27567C46.6089 8.17936 47.9969 8.64294 49.4109 8.57533C50.5824 8.52338 51.6989 8.06366 52.5674 7.27567C52.815 7.0668 52.8033 6.94689 52.5674 6.71867C50.7841 4.97419 47.2601 4.98966 45.4884 6.74961C45.2602 6.97783 45.3027 7.09774 45.5194 7.27567Z" fill="#0FBC99"/>
<path d="M53.8814 6.00279C54.4633 5.30451 54.7867 4.42707 54.7973 3.51822C54.8078 2.60938 54.5049 1.72465 53.9394 1.01303C53.7383 0.777081 53.5874 0.7384 53.3785 1.01303C52.7968 1.71251 52.4802 2.59464 52.4844 3.5044C52.4887 4.41416 52.8135 5.2933 53.4017 5.98732C53.5642 6.16138 53.6764 6.21167 53.8814 6.00279Z" fill="#0FBC99"/>
</svg>
